<svg width="24" height="24" viewBox="0 0 24 24" fill="none" xmlns="http://www.w3.org/2000/svg">
<g clip-path="url(#clip0)">
<path d="M19.714 12C19.2406 12 18.8568 12.3838 18.8568 12.8572V21.4286C18.8568 21.902 18.4731 22.2857 17.9997 22.2857H2.57139C2.098 22.2857 1.71425 21.902 1.71425 21.4286V4.28571C1.71425 3.81231 2.098 3.42855 2.57139 3.42855H12.857C13.3304 3.42855 13.7141 3.0448 13.7141 2.57139C13.7141 2.09799 13.3304 1.71428 12.857 1.71428H2.57139C1.15125 1.71428 0 2.86555 0 4.28571V21.4286C0 22.8487 1.15125 24 2.57139 24H17.9998C19.4199 24 20.5711 22.8487 20.5711 21.4286V12.8571C20.5711 12.3838 20.1874 12 19.714 12Z" fill="#0F1828"/>
<path d="M23.0392 0.961186C22.4238 0.34565 21.589 -8.68857e-05 20.7186 1.35609e-05C19.8477 -0.0024976 19.0121 0.343842 18.3984 0.961739L7.10819 12.2511C7.01453 12.3455 6.94387 12.4602 6.90163 12.5863L5.18738 17.7291C5.03777 18.1783 5.2806 18.6636 5.72974 18.8132C5.81687 18.8422 5.90813 18.857 5.99993 18.8571C6.09194 18.857 6.1834 18.8422 6.27078 18.8134L11.4136 17.0992C11.5399 17.057 11.6546 16.986 11.7487 16.8918L23.0388 5.60146C24.3203 4.32017 24.3204 2.24263 23.0392 0.961186ZM21.8269 4.39028L10.6841 15.5332L7.35504 16.6449L8.4633 13.32L19.6103 2.17714C20.2231 1.56552 21.2158 1.56653 21.8274 2.17935C22.1195 2.4721 22.2841 2.86841 22.2854 3.282C22.2864 3.6978 22.1214 4.09677 21.8269 4.39028Z" fill="#0F1828"/>
</g>
<defs>
<clipPath id="clip0">
<rect width="24" height="24" fill="white"/>
</clipPath>
</defs>
</svg>
