<svg width="100" height="100" viewBox="0 0 100 100" fill="none" xmlns="http://www.w3.org/2000/svg">
<path fill-rule="evenodd" clip-rule="evenodd" d="M50 0C22.3857 0 0 22.3857 0 50C0 64.7925 6.42363 78.0844 16.6336 87.2388L7.30503 94.3956C4.936 96.2131 6.22128 100 9.20719 100H46.9972C47.2172 100 47.4266 99.9809 47.6253 99.9447C48.4122 99.9812 49.2041 100 50 100C77.6144 100 100 77.6144 100 50C100 22.3857 77.6144 0 50 0Z" fill="#D2D5F9"/>
<path d="M28.125 56.25C31.5768 56.25 34.375 53.4518 34.375 50C34.375 46.5482 31.5768 43.75 28.125 43.75C24.6732 43.75 21.875 46.5482 21.875 50C21.875 53.4518 24.6732 56.25 28.125 56.25Z" fill="#002DE3"/>
<path d="M50 56.25C53.4518 56.25 56.25 53.4518 56.25 50C56.25 46.5482 53.4518 43.75 50 43.75C46.5482 43.75 43.75 46.5482 43.75 50C43.75 53.4518 46.5482 56.25 50 56.25Z" fill="#002DE3"/>
<path d="M71.875 56.25C75.3268 56.25 78.125 53.4518 78.125 50C78.125 46.5482 75.3268 43.75 71.875 43.75C68.4232 43.75 65.625 46.5482 65.625 50C65.625 53.4518 68.4232 56.25 71.875 56.25Z" fill="#002DE3"/>
</svg>
